<svg width="157" height="64" viewBox="0 0 157 64" fill="none" xmlns="http://www.w3.org/2000/svg">
<path d="M13.3097 3.45454L23.7188 37.5455H24.1051L34.5142 3.45454H47.1051L31.4006 50H16.4233L0.71875 3.45454H13.3097ZM52.1165 50V15.0909H63.2301V50H52.1165ZM57.6847 11.0227C56.1241 11.0227 54.7831 10.5076 53.6619 9.47727C52.5407 8.43182 51.9801 7.17424 51.9801 5.70454C51.9801 4.25 52.5407 3.00757 53.6619 1.97727C54.7831 0.931816 56.1241 0.409088 57.6847 0.409088C59.2604 0.409088 60.6013 0.931816 61.7074 1.97727C62.8286 3.00757 63.3892 4.25 63.3892 5.70454C63.3892 7.17424 62.8286 8.43182 61.7074 9.47727C60.6013 10.5076 59.2604 11.0227 57.6847 11.0227ZM77.0994 63.0909C75.7661 63.0909 74.5085 62.9848 73.3267 62.7727C72.1449 62.5758 71.1297 62.3106 70.2812 61.9773L72.7358 53.9091C73.8267 54.2727 74.8116 54.4848 75.6903 54.5455C76.5843 54.6061 77.3494 54.4621 77.9858 54.1136C78.6373 53.7803 79.1373 53.1818 79.4858 52.3182L79.9176 51.2727L67.5085 15.0909H79.1449L85.5767 40H85.9403L92.4631 15.0909H104.168L91.0085 53.3409C90.3722 55.25 89.4706 56.9318 88.304 58.3864C87.1525 59.8561 85.66 61.0076 83.8267 61.8409C82.0085 62.6742 79.7661 63.0909 77.0994 63.0909ZM119.543 3.45454V50H108.429V3.45454H119.543ZM126.616 50V15.0909H137.73V50H126.616ZM132.185 11.0227C130.624 11.0227 129.283 10.5076 128.162 9.47727C127.041 8.43182 126.48 7.17424 126.48 5.70454C126.48 4.25 127.041 3.00757 128.162 1.97727C129.283 0.931816 130.624 0.409088 132.185 0.409088C133.76 0.409088 135.101 0.931816 136.207 1.97727C137.329 3.00757 137.889 4.25 137.889 5.70454C137.889 7.17424 137.329 8.43182 136.207 9.47727C135.101 10.5076 133.76 11.0227 132.185 11.0227ZM151.054 50.6591C149.418 50.6591 148.016 50.0833 146.849 48.9318C145.698 47.7803 145.13 46.3864 145.145 44.75C145.13 43.1439 145.698 41.7727 146.849 40.6364C148.016 39.4848 149.418 38.9091 151.054 38.9091C152.599 38.9091 153.963 39.4848 155.145 40.6364C156.342 41.7727 156.948 43.1439 156.963 44.75C156.948 45.8409 156.66 46.8333 156.099 47.7273C155.554 48.6212 154.834 49.3333 153.94 49.8636C153.062 50.3939 152.099 50.6591 151.054 50.6591Z" fill="black"/>
</svg>
